<?xml version="1.0" encoding="UTF-8"?>
<!-- Created with Inkscape (http://www.inkscape.org/) -->
<svg width="73.304mm" height="25.4mm" version="1.1" viewBox="0 0 73.304 25.4" xmlns="http://www.w3.org/2000/svg" xmlns:cc="http://creativecommons.org/ns#" xmlns:dc="http://purl.org/dc/elements/1.1/" xmlns:rdf="http://www.w3.org/1999/02/22-rdf-syntax-ns#"><metadata><rdf:RDF><cc:Work rdf:about=""><dc:format>image/svg+xml</dc:format><dc:type rdf:resource="http://purl.org/dc/dcmitype/StillImage"/><dc:title/></cc:Work></rdf:RDF></metadata><g transform="translate(1.6228e-7 -271.6)"><text x="36.866188" y="270.70422" fill="#000000" font-family="'Yanone Kaffeesatz'" font-size="4.7625px" letter-spacing="0px" stroke-width=".26458" word-spacing="0px" style="line-height:2.97656226px" xml:space="preserve"><tspan x="36.866188" y="273.55502" font-family="'Yanone Kaffeesatz'" stroke-width=".26458"/></text><g transform="matrix(.26876 0 0 .26876 6.7046 273.55)" stroke-width="3.7208"><g stroke-width="3.7208"></g></g><path transform="matrix(.26458 0 0 .26458 -1.6228e-7 271.6)" d="m27.289 3.3945s-27.911 36.166-27.279 57.551c0.27369 9.2698 5.0309 19.139 13.273 24.133 1.677 1.0161 3.4376 1.815 5.2422 2.4199-4.8883-3.139-7.7086-9.2641-7.8711-15.021-0.37727-13.366 16.371-35.969 16.371-35.969s16.183 22.782 15.654 36.062c-0.22905 5.7568-3.0558 11.867-7.9648 14.977 1.8089-0.59456 3.5742-1.3839 5.2578-2.3906 8.2718-4.9459 13.031-14.791 13.414-24.057 0.87807-21.248-26.098-57.705-26.098-57.705zm243.5 84.121q-1.3489 0-2.9588-0.2177-1.5664-0.17424-2.5672-0.47864v-3.8291q2.1756 0.34809 4.1337 0.34809 1.5664 0 2.1756-0.52218 0.65268-0.56564 0.65268-2.0016 0-1.1313-0.13054-1.61-0.087-0.52214-0.39161-0.69619-0.3046-0.2177-1.0443-0.34809l-3.0894-0.60918q-1.4794-0.26116-2.1321-1.6535-0.60917-1.3924-0.60917-4.5688 0-3.568 1.61-5.1344 1.61-1.5665 4.7864-1.5665 1.3054 0 2.6543 0.2177 1.3924 0.17424 2.2191 0.47864v3.8726q-2.0451-0.3916-3.9161-0.3916-1.3489 0-1.9146 0.47864-0.52215 0.47864-0.52215 1.871 0 1.0878 0.087 1.5665 0.087 0.43514 0.34809 0.60918 0.26109 0.17424 0.87025 0.30463l2.6543 0.52214q1.0443 0.17386 1.7405 0.69619 0.6962 0.47864 1.1313 1.784 0.47864 1.3054 0.47864 3.7421 0 3.9597-1.5229 5.5696-1.5229 1.5664-4.7429 1.5664zm-13.296-12.749q0-2.8283-0.13054-3.9162-0.087-1.1313-0.47864-1.4359-0.34809-0.3481-1.3054-0.3481-1.0443 0-1.4794 0.56568-0.39162 0.56564-0.47864 1.8711-0.087 1.2618-0.087 4.5253v11.139h-4.9169v-22.191h4.6558l0.17405 2.6978h0.3481q0.87024-3.0459 4.2642-3.0459 1.871 0 2.7848 0.78323 0.91377 0.73969 1.2184 2.3932 0.34809 1.61 0.34809 4.6123v14.751h-4.9169zm-18.878 12.749q-3.2199 0-4.6994-0.91374-1.4359-0.95728-1.871-3.2199-0.43512-2.3062-0.43512-7.3101 0-4.9604 0.43512-7.2231 0.43513-2.3062 1.871-3.2634 1.4794-0.95728 4.6994-0.95728 3.2634 0 4.6994 0.95728 1.4794 0.95728 1.9146 3.2199 0.43512 2.2627 0.43512 7.2666t-0.43512 7.3101q-0.43513 2.2627-1.9146 3.2199-1.4359 0.91374-4.6994 0.91374zm0-4.1772q1.0878 0 1.4794-0.43514 0.43513-0.43514 0.52215-1.784 0.13054-1.3924 0.13054-5.0474 0-3.6551-0.13054-5.0039-0.087-1.3924-0.52215-1.8275-0.39161-0.43514-1.4794-0.43514-1.0443 0-1.4794 0.43514-0.39161 0.4351-0.52215 1.8275-0.087 1.3489-0.087 5.0039 0 3.655 0.087 5.0474 0.13054 1.3489 0.52215 1.784 0.43512 0.43514 1.4794 0.43514zm-14.942-23.584v-4.9169h5.0039v4.9169zm0.0435 27.413v-22.191h4.9169v22.191zm-10.13 0v-18.014h-2.2191v-4.1772h2.2191v-6.4399h4.9169v6.4399h3.0024v4.1772h-3.0024v18.014zm-9.3368-2.6978h-0.30459q-0.87025 3.0458-4.2642 3.0458-1.871 0-2.8283-0.73969-0.91376-0.78323-1.2619-2.3932-0.30459-1.6535-0.30459-4.6558v-14.751h4.9169v12.401q0 2.7848 0.13054 3.9161 0.13055 1.1313 0.47864 1.4794 0.39161 0.30463 1.3489 0.30463 1.0008 0 1.3924-0.56564 0.43512-0.56568 0.52215-1.8276 0.087-1.3054 0.087-4.5688v-11.139h4.9169v22.191h-4.6558zm-17.162 2.6978v-32.33h4.9169v32.33zm-10.002 0.34809q-3.2199 0-4.6994-0.91374-1.4359-0.95728-1.871-3.2199-0.43512-2.3062-0.43512-7.3101 0-4.9604 0.43512-7.2231 0.43513-2.3062 1.871-3.2634 1.4794-0.95728 4.6994-0.95728 3.2634 0 4.6994 0.95728 1.4794 0.95728 1.9146 3.2199 0.43512 2.2627 0.43512 7.2666t-0.43512 7.3101q-0.43513 2.2627-1.9146 3.2199-1.4359 0.91374-4.6994 0.91374zm0-4.1772q1.0878 0 1.4794-0.43514 0.43513-0.43514 0.52215-1.784 0.13055-1.3924 0.13055-5.0474 0-3.6551-0.13055-5.0039-0.087-1.3924-0.52215-1.8275-0.39161-0.43514-1.4794-0.43514-1.0443 0-1.4794 0.43514-0.39161 0.4351-0.52215 1.8275-0.087 1.3489-0.087 5.0039 0 3.655 0.087 5.0474 0.13054 1.3489 0.52215 1.784 0.43512 0.43514 1.4794 0.43514zm-16.456 4.1772q-1.5229 0-3.307-0.2177-1.784-0.17424-3.0459-0.52214v-4.3078q3.1764 0.30463 4.9169 0.30463 1.2184 0 1.871-0.13039 0.65268-0.17424 1.0443-0.60915 0.60918-0.73973 0.60918-3.2199 0-1.9146-0.17405-2.6978-0.13054-0.78323-0.60917-1.1313-0.47864-0.3916-1.7405-0.65269l-3.481-0.73973q-1.6535-0.34809-2.2627-2.2627-0.60917-1.9145-0.60917-5.5696 0-3.5245 0.87025-5.4391 0.87025-1.9581 2.4802-2.6978 1.6535-0.73973 4.2207-0.73973 1.9581 0 3.5245 0.26117 1.61 0.26116 2.0451 0.4351v4.3513q-0.43512-0.08693-1.61-0.17386-1.1313-0.13039-2.4367-0.13039-1.3924 0-2.1756 0.2177-0.73971 0.17386-1.0878 0.60918-0.3481 0.4351-0.47864 1.1313-0.087 0.69619-0.087 2.0016 0 1.5229 0.087 2.2191 0.13054 0.65269 0.47864 0.95728 0.34809 0.30463 1.1313 0.47864l3.0024 0.69619q1.3489 0.26116 2.2191 0.91374 0.91376 0.65272 1.4359 2.2627 0.47864 1.5665 0.47864 4.7864 0 3.9597-0.82674 6.0482-0.78323 2.0886-2.3497 2.8283-1.5229 0.73969-4.1337 0.73969zm-23.408 8.485q-3.1764 0-5.4826-0.34809v-3.9161q2.6108 0.08693 4.3512 0.08693t2.4367-0.43514q0.73971-0.4351 0.91377-1.5664 0.21754-1.0878 0.21754-3.8291v-1.871h-0.30459q-0.87024 2.9588-4.2207 2.9588-1.871 0-2.7848-0.78323-0.91377-0.78323-1.2619-2.3932-0.30459-1.6535-0.30459-4.6558v-14.272h4.9169v12.009q0 2.7848 0.13054 3.9162 0.13055 1.0878 0.47864 1.4359 0.39161 0.30463 1.3489 0.30463 1.0008 0 1.3924-0.56564 0.43512-0.56568 0.52215-1.8275 0.087-1.3054 0.087-4.5688v-10.704h4.9169v19.494q0 4.5253-0.43513 6.8315-0.43512 2.3062-2.0016 3.481-1.5664 1.2184-4.9169 1.2184zm-16.44-8.8331v-18.014h-2.2191v-4.1772h2.2191v-6.4399h4.9169v6.4399h3.0024v4.1772h-3.0024v18.014zm-9.4599-27.413v-4.9169h5.0039v4.9169zm0.0435 27.413v-22.191h4.9169v22.191zm-8.3286 0v-32.33h4.9169v32.33zm-8.3721-27.413v-4.9169h5.0039v4.9169zm0.0435 27.413v-22.191h4.9169v22.191zm-10.13 0v-18.014h-2.2191v-4.1772h2.2191v-6.4399h4.9169v6.4399h3.0024v4.1772h-3.0024v18.014zm-4.4723-29.937v16.752q0 5.9612-0.39161 8.572-0.39161 2.5672-1.9581 3.7856-1.5665 1.1748-5.2215 1.1748-3.6551 0-5.2215-1.1748-1.5665-1.2183-1.9581-3.7856-0.39161-2.6107-0.39161-8.572v-16.752h5.2215v18.797q0 3.3505 0.13054 4.6558 0.13054 1.2619 0.56566 1.697 0.47864 0.3916 1.6535 0.3916 1.1748 0 1.61-0.3916 0.47864-0.43514 0.60917-1.697 0.13054-1.2619 0.13054-4.6558v-18.797zm182.23-10.873q-3.0864 0-4.753-1.358-1.6666-1.4197-2.4074-4.8765-0.74073-3.4568-0.74073-9.9382 0-6.358 0.679-9.8147t2.3456-4.9382q1.6666-1.5432 4.753-1.5432 2.4074 0 4.0123 0.92591 1.6049 0.92591 2.4074 2.9012h0.4321v-17.716h7.9629v45.864h-7.5308l-0.24692-3.7037h-0.49382q-1.2963 4.1975-6.4197 4.1975zm3.4568-7.1604q1.2963 0 1.9136-0.43208 0.679-0.43211 0.98764-1.6667 0.37036-1.7901 0.37036-6.9752 0-4.9999-0.24692-6.3579-0.24691-1.6049-0.92591-2.1605-0.67901-0.55555-2.0987-0.55555-1.6666 0-2.3456 0.49383-0.61728 0.49383-0.86419 2.2839-0.18519 1.7284-0.18519 6.2962 0 4.5679 0.18519 6.358 0.24692 1.7284 0.86419 2.2222 0.679 0.4938 2.3456 0.4938zm-24.087-10.37q0-3.9506-0.18519-5.432-0.1852-1.4815-0.74073-1.8518-0.55555-0.43208-2.0987-0.43208-1.6049 0-2.2839 0.61727-0.61727 0.61727-0.80246 2.3457-0.18519 1.6666-0.18519 5.6789v16.111h-7.9629v-31.481h7.5308l0.24692 3.7654h0.43209q0.86419-2.3456 2.6543-3.2716 1.7901-0.98763 4.3209-0.98763 2.9629 0 4.4444 1.1728 1.5432 1.1728 2.037 3.5802 0.55555 2.3457 0.55555 6.5432v20.679h-7.9629zm-34.677 17.531q-3.8271 0-5.4938-2.2839-1.6666-2.3456-1.6666-7.2839 0-3.6419 0.74073-5.6789 0.74073-2.0987 2.4691-3.0247 1.7901-0.98763 4.9382-0.98763 2.2222 0 5.9258 0.2468v-1.4197q0-2.5926-0.43209-3.6419-0.37036-1.1111-1.4815-1.4197-1.0494-0.30879-3.7036-0.30879-2.5926 0-6.9135 0.43208v-6.1728q4.6296-0.92591 9.3209-0.92591 4.6296 0 7.037 1.2345 2.4074 1.2345 3.2716 3.8889 0.86419 2.6543 0.86419 7.5925v19.259h-7.5925l-0.24692-3.7037h-0.43209q-0.80246 2.2839-2.5926 3.2716-1.7901 0.92591-4.0123 0.92591zm3.4568-6.9135q1.0494 0 1.6666-0.2468 0.67901-0.2468 1.1111-0.92591 0.679-1.0493 0.679-4.2592v-1.5432h-3.7037q-1.6049 0-2.1605 0.67903-0.49382 0.67899-0.49382 2.9629 0 1.9753 0.49382 2.6543 0.55554 0.67899 2.4074 0.67899zm-22.944 6.4197v-45.864h7.9629v45.864zm-11.832 0-5.0617-12.284h-1.6666v12.284h-7.9629v-45.864h7.9629v26.852h1.6666l5.2468-12.469h8.148l-6.79 15 6.8518 16.481zm-19.185-0.43208q-3.1481 0.92591-6.9135 0.92591-4.5678 0-6.79-1.7284-2.2222-1.7284-2.9629-5.0617-0.679-3.3333-0.679-9.4444 0-6.111 0.74073-9.506 0.80246-3.395 3.0246-5.0617 2.2222-1.6667 6.6049-1.6667 4.1975 0 6.79 0.86419v6.1728q-2.8395-0.37039-4.5061-0.37039-2.2222 0-3.1481 0.61727-0.92591 0.61727-1.2346 2.5308-0.30863 1.9135-0.30863 6.4196 0 4.5679 0.30863 6.4814 0.37036 1.9135 1.2963 2.5308 0.92592 0.55555 3.1481 0.55555 1.5432 0 4.6296-0.37039zm-21.653-12.839h-14.012q0 3.5185 0.30863 4.8765 0.30864 1.358 1.4197 1.7901 1.1111 0.43208 4.0123 0.43208 2.3456 0 7.5308-0.37039v6.111q-1.6666 0.37039-4.3209 0.61727-2.6543 0.30879-5.0617 0.30879-5.4938 0-8.0246-1.6049-2.4691-1.6666-3.1481-4.8765-0.679-3.2098-0.679-9.6912 0-6.358 0.679-9.6295 0.67901-3.2716 3.0864-4.9382 2.4074-1.7284 7.5925-1.7284 5.0617 0 7.2839 1.6049 2.2839 1.5432 2.7778 4.6913 0.55555 3.1481 0.55555 9.9999zm-10.679-12.099q-1.5432 0-2.2222 0.43208-0.61727 0.43211-0.86418 1.7901-0.24692 1.358-0.24692 4.5061h6.5431q0-3.1481-0.24691-4.5061-0.24692-1.4197-0.86419-1.7901-0.61728-0.43208-2.0987-0.43208zm-29.484-6.111h7.5308l0.24692 5.1851h0.49382q0.92591-3.2098 2.6543-4.4444 1.7284-1.2345 4.6296-1.2345v8.3332q-2.7777 0-4.4444 0.80247-1.6049 0.80247-2.4074 2.8395-0.74074 2.037-0.74074 5.6789v14.321h-7.9629zm-29.77-10.988h14.568q4.9999 0 7.469 2.6543 2.5308 2.6543 2.5308 8.0246 0 4.5061-1.358 6.9135-1.358 2.3456-4.2592 3.0864v0.2468q3.2098 0.80243 4.5678 3.0864 1.4197 2.2839 1.4197 7.0987 0 5.6172-2.4074 8.5184-2.4074 2.8395-7.9629 2.8395h-14.568zm12.284 17.345q1.6049 0 2.4074-0.37039 0.86419-0.37039 1.1728-1.4197 0.37036-1.0493 0.37036-3.1481 0-2.2222-0.30864-3.2098-0.30864-1.0494-1.1111-1.358-0.80246-0.37039-2.5308-0.37039h-3.8888v9.8764zm0.1852 17.654q1.7284 0 2.5308-0.37039 0.80246-0.37039 1.1111-1.4197 0.30864-1.0494 0.30864-3.3333 0-2.2839-0.30864-3.3333-0.30864-1.1111-1.1728-1.4815-0.80246-0.37039-2.4691-0.37039h-4.074v10.309z" fill="#6464ff" fill-rule="evenodd"/></g></svg>
