<?xml version="1.0" encoding="UTF-8" standalone="no"?>
<!-- Created with Inkscape (http://www.inkscape.org/) -->

<svg
   xmlns:dc="http://purl.org/dc/elements/1.1/"
   xmlns:cc="http://creativecommons.org/ns#"
   xmlns:rdf="http://www.w3.org/1999/02/22-rdf-syntax-ns#"
   xmlns:svg="http://www.w3.org/2000/svg"
   xmlns="http://www.w3.org/2000/svg"
   xmlns:xlink="http://www.w3.org/1999/xlink"
   xmlns:sodipodi="http://sodipodi.sourceforge.net/DTD/sodipodi-0.dtd"
   xmlns:inkscape="http://www.inkscape.org/namespaces/inkscape"
   width="486.62808mm"
   height="87.488892mm"
   viewBox="0 0 1724.2727 310.00001"
   id="svg2"
   version="1.1"
   inkscape:version="0.92.0 r15299"
   sodipodi:docname="JGW-Logo.svg">
  <defs
     id="defs4" />
  <sodipodi:namedview
     id="base"
     pagecolor="#ffffff"
     bordercolor="#666666"
     borderopacity="1.0"
     inkscape:pageopacity="0.0"
     inkscape:pageshadow="2"
     inkscape:zoom="0.64973048"
     inkscape:cx="917.19409"
     inkscape:cy="165.33331"
     inkscape:document-units="px"
     inkscape:current-layer="text5252"
     showgrid="false"
     inkscape:window-width="1366"
     inkscape:window-height="706"
     inkscape:window-x="-8"
     inkscape:window-y="-8"
     inkscape:window-maximized="1"
     showborder="false"
     fit-margin-top="0"
     fit-margin-left="0"
     fit-margin-right="0"
     fit-margin-bottom="0">
    <inkscape:grid
       type="xygrid"
       id="grid4903"
       originx="0"
       originy="-2.4856998e-005" />
  </sodipodi:namedview>
  <metadata
     id="metadata7">
    <rdf:RDF>
      <cc:Work
         rdf:about="">
        <dc:format>image/svg+xml</dc:format>
        <dc:type
           rdf:resource="http://purl.org/dc/dcmitype/StillImage" />
        <dc:title />
      </cc:Work>
    </rdf:RDF>
  </metadata>
  <g
     inkscape:label="Layer 1"
     inkscape:groupmode="layer"
     id="layer1"
     transform="translate(0,-742.36218)">
    <g
       id="g5365">
      <g
         aria-label="JOHN WALLIS"
         style="font-style:normal;font-weight:normal;font-size:40px;line-height:125%;font-family:sans-serif;letter-spacing:0px;word-spacing:0px;fill:#ffffff;fill-opacity:1;stroke:none;stroke-width:1px;stroke-linecap:butt;stroke-linejoin:miter;stroke-opacity:1"
         id="text5252">
        <g
           id="g8560"
           style="fill:#333333;fill-opacity:1">
          <rect
             style="fill:#333333;fill-opacity:1;stroke:none;stroke-width:20;stroke-linecap:round;stroke-linejoin:round;stroke-miterlimit:4;stroke-dasharray:none;stroke-opacity:1"
             id="rect5256-7"
             width="420"
             height="310"
             x="0"
             y="742.36218"
             rx="35.000816"
             ry="35.000816" />
          <path
             sodipodi:nodetypes="cssc"
             inkscape:connector-curvature="0"
             style="fill:#333333;fill-opacity:1;stroke:#ffffff;stroke-width:30;stroke-linecap:butt;stroke-linejoin:round;stroke-miterlimit:4;stroke-dasharray:none;stroke-opacity:1"
             d="m 110.47822,792.36752 c 27.56629,0.5273 49.71823,45.579 49.5205,100.7127 -0.19773,55.1337 -22.67056,99.5453 -50.23782,99.2816 -27.56725,-0.2637 -49.82668,-45.103 -49.76075,-100.238"
             id="path5281" />
          <use
             x="0"
             y="0"
             xlink:href="#path5281"
             id="use5296"
             transform="matrix(-1,0,0,1,320.00008,0)"
             width="100%"
             height="100%"
             style="fill:#333333;fill-opacity:1" />
          <use
             x="0"
             y="0"
             xlink:href="#path5281"
             id="use5298"
             transform="translate(200)"
             width="100%"
             height="100%"
             style="fill:#333333;fill-opacity:1" />
          <path
             id="path8521"
             style="font-style:normal;font-variant:normal;font-weight:bold;font-stretch:normal;font-size:325px;line-height:125%;font-family:'Yanone Kaffeesatz';-inkscape-font-specification:'Yanone Kaffeesatz Bold';text-align:start;letter-spacing:1.5px;writing-mode:lr-tb;text-anchor:start;fill:#333333;fill-opacity:1"
             d="m 497.825,1007.5136 q -21.125,0 -28.6,-5.85 -7.475,-5.84998 -7.475,-15.92498 0,-5.85 0.975,-9.75 1.3,-3.9 3.9,-9.75 5.2,3.9 12.35,6.825 7.15,2.6 13.65,2.6 7.475,0 11.05,-2.275 3.575,-2.6 4.875,-8.775 1.3,-6.5 1.3,-19.5 v -152.1 q 0,-8.775 1.625,-11.7 1.625,-2.925 8.125,-3.575 6.5,-0.65 26.975,-0.65 v 175.175 q 0,27.95 -11.375,41.6 -11.375,13.64998 -37.375,13.64998 z"
             inkscape:connector-curvature="0" />
          <path
             id="path8523"
             style="font-style:normal;font-variant:normal;font-weight:bold;font-stretch:normal;font-size:325px;line-height:125%;font-family:'Yanone Kaffeesatz';-inkscape-font-specification:'Yanone Kaffeesatz Bold';text-align:start;letter-spacing:1.5px;writing-mode:lr-tb;text-anchor:start;fill:#333333;fill-opacity:1"
             d="m 632.27539,1007.8386 q -22.425,0 -34.775,-9.74998 -12.35,-9.75 -18.2,-35.1 -5.525,-25.35 -5.525,-73.45 0,-43.55 6.5,-68.9 6.825,-25.35 20.15,-36.075 13.65,-10.725 35.425,-10.725 21.775,0 34.125,10.075 12.35,10.075 17.875,34.775 5.85,24.7 5.85,69.55 0,45.5 -6.5,71.5 -6.5,26 -19.825,37.05 -13,11.04998 -35.1,11.04998 z m 1.95,-37.37498 q 8.125,0 12.35,-8.125 4.225,-8.125 5.85,-25.025 1.625,-17.225 1.625,-47.775 0,-31.525 -1.3,-47.45 -0.975,-15.925 -5.2,-23.4 -3.9,-7.475 -12.35,-7.475 -7.8,0 -12.35,8.45 -4.225,8.125 -6.175,26.65 -1.625,18.525 -1.625,51.35 0,27.625 1.3,42.9 1.625,15.275 5.525,22.75 4.225,7.15 12.35,7.15 z"
             inkscape:connector-curvature="0" />
          <path
             id="path8525"
             style="font-style:normal;font-variant:normal;font-weight:bold;font-stretch:normal;font-size:325px;line-height:125%;font-family:'Yanone Kaffeesatz';-inkscape-font-specification:'Yanone Kaffeesatz Bold';text-align:start;letter-spacing:1.5px;writing-mode:lr-tb;text-anchor:start;fill:#333333;fill-opacity:1"
             d="m 816.15117,998.08862 q 0,3.57498 -1.625,4.87498 -1.3,0.975 -10.4,1.3 -8.775,0.325 -24.05,0.325 V 900.26362 h -31.85 v 97.825 q 0,3.57498 -1.625,4.87498 -1.3,0.975 -10.4,1.3 -8.775,0.325 -24.05,0.325 V 783.58862 q 0,-3.575 1.3,-4.55 1.625,-1.3 10.4,-1.625 9.1,-0.325 24.375,-0.325 v 89.375 h 31.85 v -82.875 q 0,-3.575 1.3,-4.55 1.625,-1.3 10.4,-1.625 9.1,-0.325 24.375,-0.325 z"
             inkscape:connector-curvature="0" />
          <path
             id="path8527"
             style="font-style:normal;font-variant:normal;font-weight:bold;font-stretch:normal;font-size:325px;line-height:125%;font-family:'Yanone Kaffeesatz';-inkscape-font-specification:'Yanone Kaffeesatz Bold';text-align:start;letter-spacing:1.5px;writing-mode:lr-tb;text-anchor:start;fill:#333333;fill-opacity:1"
             d="m 921.91523,783.58862 q 0,-3.575 1.625,-4.55 1.95,-1.3 10.725,-1.625 8.775,-0.325 23.725,-0.325 v 221 q 0,2.92498 -1.625,4.87498 -1.625,1.625 -4.875,1.625 h -27.95 l -34.45,-87.09998 q -8.45,-21.775 -19.5,-72.15 4.225,41.6 4.225,74.75 v 78 q 0,3.57498 -1.625,4.87498 -1.625,0.975 -10.725,1.3 -8.775,0.325 -23.725,0.325 V 783.58862 q 0,-6.5 6.5,-6.5 h 28.6 l 34.125,85.475 q 8.125,20.475 19.175,68.9 -4.225,-39.325 -4.225,-72.15 z"
             inkscape:connector-curvature="0" />
          <path
             id="path8529"
             style="font-style:normal;font-variant:normal;font-weight:bold;font-stretch:normal;font-size:325px;line-height:125%;font-family:'Yanone Kaffeesatz';-inkscape-font-specification:'Yanone Kaffeesatz Bold';text-align:start;letter-spacing:1.5px;writing-mode:lr-tb;text-anchor:start;fill:#333333;fill-opacity:1"
             d="m 1231.8168,777.08862 -39,227.49998 q -9.1,0.975 -15.925,1.3 -6.825,0.65 -15.6,0.65 -8.125,0 -12.675,-5.2 -4.55,-5.19998 -6.5,-15.27498 l -7.475,-36.075 q -4.875,-24.375 -10.725,-83.525 -6.175,59.8 -10.075,83.525 l -9.1,54.59998 q -15.925,1.625 -34.45,1.625 -6.825,0 -11.375,-5.525 -4.225,-5.52498 -6.175,-14.62498 -6.825,-32.825 -18.525,-104.325 -11.7,-71.5 -15.6,-95.225 -0.325,-1.625 -0.325,-4.225 0,-2.925 1.625,-3.9 1.95,-1.3 6.825,-1.3 h 30.225 l 16.25,106.6 q 6.825,43.875 9.1,84.175 h 2.6 q 0.975,-39.65 8.125,-84.175 l 13.975,-87.1 q 0.65,-5.525 2.275,-7.475 1.625,-2.275 6.5,-2.275 h 25.35 l 16.9,96.85 q 5.525,31.85 9.425,84.175 h 2.6 q 1.625,-41.6 7.8,-84.175 l 13.975,-96.85 q 0.65,-5.525 2.275,-7.475 1.625,-2.275 6.175,-2.275 z"
             inkscape:connector-curvature="0" />
          <path
             id="path8531"
             style="font-style:normal;font-variant:normal;font-weight:bold;font-stretch:normal;font-size:325px;line-height:125%;font-family:'Yanone Kaffeesatz';-inkscape-font-specification:'Yanone Kaffeesatz Bold';text-align:start;letter-spacing:1.5px;writing-mode:lr-tb;text-anchor:start;fill:#333333;fill-opacity:1"
             d="m 1359.4777,998.73862 q 0.65,3.24998 -2.6,4.87498 -3.25,1.625 -13.65,1.625 -11.375,0 -20.8,-0.65 l -10.725,-51.99998 h -43.875 l -9.425,45.825 q -0.975,3.89998 -3.9,5.52498 -2.6,1.3 -12.675,1.3 -11.375,0 -22.75,-1.3 l 54.275,-220.67498 q 1.3,-6.825 14.625,-6.825 11.05,0 17.225,1.3 z m -54.6,-78.65 -6.5,-30.55 q -4.875,-23.4 -8.45,-61.425 -4.55,41.275 -8.775,61.425 l -6.5,30.55 z"
             inkscape:connector-curvature="0" />
          <path
             id="path8533"
             style="font-style:normal;font-variant:normal;font-weight:bold;font-stretch:normal;font-size:325px;line-height:125%;font-family:'Yanone Kaffeesatz';-inkscape-font-specification:'Yanone Kaffeesatz Bold';text-align:start;letter-spacing:1.5px;writing-mode:lr-tb;text-anchor:start;fill:#333333;fill-opacity:1"
             d="m 1371.8652,786.18862 q 0,-4.875 1.625,-6.5 1.95,-1.95 8.125,-2.275 6.5,-0.325 26.325,-0.325 v 193.7 h 46.15 v 27.3 q 0,6.49998 -6.175,6.49998 h -76.05 z"
             inkscape:connector-curvature="0" />
          <path
             id="path8535"
             style="font-style:normal;font-variant:normal;font-weight:bold;font-stretch:normal;font-size:325px;line-height:125%;font-family:'Yanone Kaffeesatz';-inkscape-font-specification:'Yanone Kaffeesatz Bold';text-align:start;letter-spacing:1.5px;writing-mode:lr-tb;text-anchor:start;fill:#333333;fill-opacity:1"
             d="m 1470.4844,786.18862 q 0,-4.875 1.625,-6.5 1.95,-1.95 8.125,-2.275 6.5,-0.325 26.325,-0.325 v 193.7 h 46.15 v 27.3 q 0,6.49998 -6.175,6.49998 h -76.05 z"
             inkscape:connector-curvature="0" />
          <path
             id="path8537"
             style="font-style:normal;font-variant:normal;font-weight:bold;font-stretch:normal;font-size:325px;line-height:125%;font-family:'Yanone Kaffeesatz';-inkscape-font-specification:'Yanone Kaffeesatz Bold';text-align:start;letter-spacing:1.5px;writing-mode:lr-tb;text-anchor:start;fill:#333333;fill-opacity:1"
             d="m 1569.1035,793.01362 q 0,-8.775 1.625,-11.7 1.95,-2.925 8.45,-3.575 6.5,-0.65 26.65,-0.65 v 221 q 0,3.57498 -1.625,4.87498 -1.625,0.975 -10.725,1.3 -9.1,0.325 -24.375,0.325 z"
             inkscape:connector-curvature="0" />
          <path
             id="path8539"
             style="font-style:normal;font-variant:normal;font-weight:bold;font-stretch:normal;font-size:325px;line-height:125%;font-family:'Yanone Kaffeesatz';-inkscape-font-specification:'Yanone Kaffeesatz Bold';text-align:start;letter-spacing:1.5px;writing-mode:lr-tb;text-anchor:start;fill:#333333;fill-opacity:1"
             d="m 1665.1227,1007.8386 q -20.8,0 -31.85,-6.175 -10.725,-6.49998 -10.725,-15.59998 0,-5.85 1.95,-12.675 2.275,-7.15 6.175,-13.325 5.2,4.875 13.325,7.8 8.45,2.925 16.9,2.925 13,0 18.525,-6.5 5.525,-6.5 5.525,-18.85 0,-8.45 -3.25,-15.925 -2.925,-7.475 -11.375,-18.85 l -29.575,-39.325 q -10.725,-13.975 -14.625,-25.025 -3.9,-11.05 -3.9,-22.75 0,-22.75 14.95,-36.075 14.95,-13.65 42.9,-13.65 23.725,0 33.8,4.55 10.4,4.55 10.4,13.65 0,10.725 -8.45,20.15 -2.925,-2.275 -11.375,-4.225 -8.45,-2.275 -16.9,-2.275 -12.35,0 -19.175,4.225 -6.825,4.225 -6.825,12.675 0,7.475 2.6,13.65 2.6,6.175 9.425,15.275 l 31.2,39.975 q 11.375,14.625 15.275,26.65 4.225,11.7 4.225,26.325 0,28.275 -13.325,45.825 -13.325,17.54998 -45.825,17.54998 z"
             inkscape:connector-curvature="0" />
        </g>
      </g>
    </g>
  </g>
</svg>
